<svg width="94" height="95" viewBox="0 0 94 95" fill="none" xmlns="http://www.w3.org/2000/svg">
<path d="M47 0C72.9585 0 94 21.2654 94 47.5C94 73.7346 72.9585 95 47 95C39.7367 95.0122 32.5704 93.3137 26.0693 90.04C25.057 89.5286 23.5477 89.4799 21.2002 90.0645C20.0145 90.3714 18.8423 90.7295 17.6865 91.1367L17.2715 91.2832C16.2063 91.6437 15.0542 92.0329 13.9746 92.3252C7.10067 94.1862 0.805319 87.824 2.64648 80.8721C2.93572 79.7857 3.32102 78.6157 3.67773 77.5439L3.82227 77.125C4.22511 75.957 4.57909 74.7724 4.88281 73.5742C5.45645 71.2017 5.40855 69.6764 4.90723 68.6533C1.76426 62.2762 5.50737e-06 55.0902 0 47.5C0 34.9022 4.95143 22.8201 13.7656 13.9121C22.5798 5.00414 34.5348 6.38129e-08 47 0ZM47.5 26C41.2674 26 35.2899 28.5284 30.8828 33.0293C26.4757 37.5302 24 43.6348 24 50C24 53.835 24.8827 57.4654 26.4541 60.6875C26.7048 61.2044 26.7282 61.9752 26.4414 63.1738C26.2895 63.7794 26.1126 64.3785 25.9111 64.9688L25.8389 65.1807C25.6606 65.722 25.4678 66.3126 25.3232 66.8613C24.4025 70.3739 27.5503 73.5887 30.9873 72.6484C31.5271 72.5008 32.1032 72.3042 32.6357 72.1221L32.8428 72.0479C33.4207 71.8421 34.0077 71.6619 34.6006 71.5068C35.774 71.2116 36.5281 71.2359 37.0342 71.4941C40.2847 73.1482 43.8683 74.0062 47.5 74C60.4792 74 71 63.2554 71 50C71 36.7446 60.4792 26 47.5 26Z" fill="#5FDBD7"/>
<path d="M60 44.1057C60 45.2383 54.8512 47 48.5 47C42.1488 47 37 45.2383 37 44.1057C37 43.7282 38.9167 44.4832 48.5 44.4832C58.0833 44.4832 60 43.7282 60 44.1057Z" fill="#EB877C"/>
<path d="M48.3399 45.3898C43.5599 45.3898 39.5765 44.5931 39.5765 44.5931V54.1531C39.5765 58.9929 43.5001 62.9165 48.3399 62.9165C53.1796 62.9165 57.1032 58.9929 57.1032 54.1531V44.5931C57.1032 44.5931 53.1199 45.3898 48.3399 45.3898Z" fill="#E55D4E"/>
<path d="M48.6566 59.7734C48.6566 59.9894 48.5948 60.1965 48.4849 60.3492C48.3749 60.5019 48.2258 60.5877 48.0703 60.5877C47.9148 60.5877 47.7657 60.5019 47.6558 60.3492C47.5458 60.1965 47.4841 59.9894 47.4841 59.7734V46.7453C47.4841 46.5294 47.5458 46.3223 47.6558 46.1696C47.7657 46.0169 47.9148 45.9311 48.0703 45.9311C48.2258 45.9311 48.3749 46.0169 48.4849 46.1696C48.5948 46.3223 48.6566 46.5294 48.6566 46.7453V59.7734Z" fill="#FFA3AF"/>
</svg>
