<svg width="303" height="117" viewBox="0 0 303 117" fill="none" xmlns="http://www.w3.org/2000/svg">
<path d="M76.5892 80.9761C78.8946 86.2115 75.957 92.3913 70.6609 94.5537C63.3318 97.546 55.7879 101.207 48.9226 102.877C41.9954 104.565 34.5654 107.096 27.2624 109.298C21.8969 110.916 16.4573 107.488 15.4718 101.971C13.4111 90.4358 11.7303 78.3719 9.53423 67.4439C7.34691 56.5539 5.01986 45.6207 2.55307 34.6443C1.31193 29.1217 4.85894 23.6548 10.3968 22.483C12.7538 21.9842 15.0937 21.4753 17.4164 20.9562C18.9562 20.612 20.4983 20.2616 22.0426 19.9049C28.3431 18.4498 34.4337 23.152 34.5802 29.6167C34.6157 31.1801 34.6548 32.7457 34.6976 34.3135C34.9298 40.0445 35.3431 45.7815 35.9376 51.5246C36.4543 56.3456 37.0147 61.1587 37.6186 65.9638C37.8218 67.3784 38.0257 68.7963 38.2302 70.2177C39.0224 75.7243 44.1599 79.5318 49.6442 78.5977C52.0146 78.1939 54.3674 77.7797 56.7024 77.355C60.0426 76.7475 63.3877 76.1663 66.7374 75.6113C70.8603 74.9283 74.905 77.1514 76.5892 80.9761Z" fill="#C57BDB"/>
<path d="M233.921 102.744C232.972 108.291 227.633 111.963 222.116 110.853C215.127 109.447 208.162 108.03 201.221 106.6C194.325 105.184 187.394 103.739 180.428 102.268C174.945 101.109 171.498 95.661 172.799 90.21C175.408 79.2774 178.051 68.424 180.726 57.6498C183.41 46.8468 185.985 35.9447 188.453 24.9436C189.691 19.4204 195.235 15.9945 200.742 17.3027C203.096 17.8617 205.438 18.4041 207.769 18.9298C209.317 19.279 210.871 19.6235 212.429 19.9632C218.746 21.3408 222.242 28.1954 219.611 34.1022C218.971 35.5394 218.333 36.9802 217.698 38.4246C215.454 43.7134 213.372 49.0853 211.451 54.5403C209.855 59.127 208.301 63.7252 206.791 68.3349C206.367 69.7081 205.943 71.0847 205.518 72.4646C203.88 77.7814 206.897 83.4197 212.254 84.9198C214.579 85.5707 216.892 86.2045 219.194 86.8212C221.906 87.5479 224.613 88.2922 227.315 89.0541C232.189 90.4281 235.199 95.2784 234.344 100.27L233.921 102.744Z" fill="#C57BDB"/>
<path fill-rule="evenodd" clip-rule="evenodd" d="M274.815 31.5109C277.226 32.0753 278.86 34.3184 278.659 36.7857L272.942 106.899C272.731 109.494 270.562 111.493 267.959 111.493L255.693 111.493C252.675 111.493 250.345 108.839 250.734 105.847L254.175 79.405C254.474 77.1109 253.159 74.9116 250.997 74.0877L248.182 73.0146C246.522 72.3817 244.649 72.6784 243.265 73.7932L231.388 83.3618C230.039 84.4483 228.224 84.7599 226.591 84.1849L216.039 80.4707C212.683 79.2893 211.599 75.0795 213.968 72.4249L252.707 29.0137C253.926 27.6475 255.794 27.0564 257.577 27.4738L274.815 31.5109ZM261.766 50.0957C260.531 49.6593 259.155 49.7763 258.084 50.3432C257.607 49.2296 256.61 48.2744 255.375 47.8378C253.188 47.0651 250.905 48.0528 250.182 50.0975C249.301 52.5925 250.993 55.4908 253.559 59.8734L254.28 61.111L255.619 60.6011C260.368 58.8027 263.506 57.6108 264.387 55.1158C265.109 53.0709 263.954 50.8685 261.766 50.0957ZM283.482 15.6604C283.825 15.7816 284.005 16.1583 283.884 16.5015C283.835 16.6395 283.741 16.7572 283.618 16.8353C282.499 17.5405 280.963 18.4058 279.009 19.4309C277.022 20.4811 274.875 21.5068 272.568 22.5069C270.851 23.2512 269.263 23.855 267.806 24.319C266.987 24.5796 266.106 24.5419 265.296 24.2557L262.066 23.1146C261.66 22.9712 261.447 22.5259 261.59 22.1202C261.651 21.948 261.771 21.8028 261.927 21.7089C263.064 21.0284 264.375 20.1908 265.857 19.1966C267.465 18.0752 269.044 16.9433 270.592 15.8008C271.2 15.3363 271.773 14.8873 272.309 14.4539C273.74 13.2974 275.663 12.8985 277.398 13.5112L283.482 15.6604Z" fill="#C57BDB"/>
<path d="M125 13.4927C150.958 13.4927 172 34.7581 172 60.9927C172 87.2273 150.958 108.493 125 108.493C117.737 108.505 110.57 106.806 104.069 103.533C103.057 103.021 101.548 102.973 99.2002 103.557C98.0145 103.864 96.8423 104.222 95.6865 104.629L95.2715 104.776C94.2063 105.136 93.0542 105.526 91.9746 105.818C85.1007 107.679 78.8053 101.317 80.6465 94.3647C80.9357 93.2783 81.321 92.1084 81.6777 91.0366L81.8223 90.6177C82.2251 89.4497 82.5791 88.2651 82.8828 87.0669C83.4565 84.6943 83.4086 83.1691 82.9072 82.146C79.7643 75.7688 78 68.5829 78 60.9927C78 48.3949 82.9514 36.3128 91.7656 27.4048C100.58 18.4968 112.535 13.4927 125 13.4927ZM125.5 39.4927C119.267 39.4927 113.29 42.0211 108.883 46.522C104.476 51.0228 102 57.1275 102 63.4927C102 67.3277 102.883 70.9581 104.454 74.1802C104.705 74.6971 104.728 75.4679 104.441 76.6665C104.29 77.272 104.113 77.8712 103.911 78.4614L103.839 78.6733C103.661 79.2147 103.468 79.8053 103.323 80.354C102.403 83.8666 105.55 87.0814 108.987 86.1411C109.527 85.9934 110.103 85.7969 110.636 85.6147L110.843 85.5405C111.421 85.3348 112.008 85.1546 112.601 84.9995C113.774 84.7042 114.528 84.7285 115.034 84.9868C118.285 86.6409 121.868 87.4988 125.5 87.4927C138.479 87.4927 149 76.748 149 63.4927C149 50.2373 138.479 39.4927 125.5 39.4927Z" fill="#C57BDB"/>
<path d="M136 55.6506C136 56.7832 130.851 58.5449 124.5 58.5449C118.149 58.5449 113 56.7832 113 55.6506C113 55.2731 114.917 56.0281 124.5 56.0281C134.083 56.0281 136 55.2731 136 55.6506Z" fill="#EB877C"/>
<path d="M124.34 56.9347C119.56 56.9347 115.577 56.1381 115.577 56.1381V65.6981C115.577 70.5378 119.5 74.4614 124.34 74.4614C129.18 74.4614 133.103 70.5378 133.103 65.6981V56.1381C133.103 56.1381 129.12 56.9347 124.34 56.9347Z" fill="#E55D4E"/>
<path d="M124.657 71.3183C124.657 71.5343 124.595 71.7414 124.485 71.8941C124.375 72.0468 124.226 72.1326 124.07 72.1326C123.915 72.1326 123.766 72.0468 123.656 71.8941C123.546 71.7414 123.484 71.5343 123.484 71.3183V58.2903C123.484 58.0743 123.546 57.8672 123.656 57.7145C123.766 57.5618 123.915 57.476 124.07 57.476C124.226 57.476 124.375 57.5618 124.485 57.7145C124.595 57.8672 124.657 58.0743 124.657 58.2903V71.3183Z" fill="#FFA3AF"/>
<path d="M136 55.6506C136 56.7832 130.851 58.5449 124.5 58.5449C118.149 58.5449 113 56.7832 113 55.6506C113 55.2731 114.917 56.0281 124.5 56.0281C134.083 56.0281 136 55.2731 136 55.6506Z" fill="#EB877C"/>
<path d="M124.34 56.9347C119.56 56.9347 115.577 56.1381 115.577 56.1381V65.6981C115.577 70.5378 119.5 74.4614 124.34 74.4614C129.18 74.4614 133.103 70.5378 133.103 65.6981V56.1381C133.103 56.1381 129.12 56.9347 124.34 56.9347Z" fill="#E55D4E"/>
<path d="M124.657 71.3183C124.657 71.5343 124.595 71.7414 124.485 71.8941C124.375 72.0468 124.226 72.1326 124.07 72.1326C123.915 72.1326 123.766 72.0468 123.656 71.8941C123.546 71.7414 123.484 71.5343 123.484 71.3183V58.2903C123.484 58.0743 123.546 57.8672 123.656 57.7145C123.766 57.5618 123.915 57.476 124.07 57.476C124.226 57.476 124.375 57.5618 124.485 57.7145C124.595 57.8672 124.657 58.0743 124.657 58.2903V71.3183Z" fill="#FFA3AF"/>
</svg>
