<svg width="303" height="117" viewBox="0 0 303 117" fill="none" xmlns="http://www.w3.org/2000/svg">
<path d="M76.5892 80.976C78.8946 86.2114 75.957 92.3913 70.6609 94.5536C63.3318 97.5459 55.7879 101.207 48.9226 102.877C41.9954 104.565 34.5654 107.096 27.2624 109.298C21.8969 110.916 16.4573 107.487 15.4718 101.971C13.4111 90.4357 11.7303 78.3718 9.53423 67.4438C7.34691 56.5538 5.01986 45.6206 2.55307 34.6442C1.31193 29.1216 4.85894 23.6547 10.3968 22.4829C12.7538 21.9841 15.0937 21.4752 17.4164 20.9561C18.9562 20.6119 20.4983 20.2615 22.0426 19.9048C28.3431 18.4497 34.4337 23.1519 34.5802 29.6166C34.6157 31.18 34.6548 32.7457 34.6976 34.3134C34.9298 40.0444 35.3431 45.7814 35.9376 51.5245C36.4543 56.3455 37.0147 61.1586 37.6186 65.9637C37.8218 67.3783 38.0257 68.7962 38.2302 70.2176C39.0224 75.7242 44.1599 79.5317 49.6442 78.5976C52.0146 78.1938 54.3674 77.7796 56.7024 77.3549C60.0426 76.7474 63.3877 76.1662 66.7374 75.6112C70.8603 74.9282 74.905 77.1513 76.5892 80.976Z" fill="#F5C15F"/>
<path d="M233.921 102.743C232.972 108.291 227.633 111.963 222.116 110.853C215.127 109.447 208.162 108.03 201.221 106.6C194.325 105.184 187.394 103.739 180.428 102.268C174.945 101.109 171.498 95.6609 172.799 90.2099C175.408 79.2773 178.051 68.4239 180.726 57.6498C183.41 46.8467 185.985 35.9446 188.453 24.9436C189.691 19.4203 195.235 15.9944 200.742 17.3026C203.096 17.8616 205.438 18.404 207.769 18.9297C209.317 19.2789 210.871 19.6234 212.429 19.9631C218.746 21.3407 222.242 28.1953 219.611 34.1021C218.971 35.5393 218.333 36.9801 217.698 38.4245C215.454 43.7133 213.372 49.0852 211.451 54.5402C209.855 59.1269 208.301 63.7251 206.791 68.3349C206.367 69.708 205.943 71.0846 205.518 72.4645C203.88 77.7813 206.897 83.4196 212.254 84.9197C214.579 85.5706 216.892 86.2044 219.194 86.8211C221.906 87.5478 224.613 88.2921 227.315 89.054C232.189 90.428 235.199 95.2783 234.344 100.27L233.921 102.743Z" fill="#F5C15F"/>
<path fill-rule="evenodd" clip-rule="evenodd" d="M274.816 31.5109C277.226 32.0754 278.86 34.3185 278.659 36.7857L272.943 106.899C272.731 109.494 270.563 111.493 267.959 111.493L255.693 111.493C252.675 111.493 250.345 108.84 250.735 105.847L254.176 79.4051C254.474 77.111 253.16 74.9117 250.998 74.0878L248.182 73.0143C246.521 72.3815 244.649 72.678 243.265 73.7929L231.387 83.3616C230.039 84.4481 228.224 84.7597 226.59 84.1847L216.038 80.4704C212.683 79.289 211.6 75.0795 213.968 72.4249L252.706 29.0134C253.926 27.6472 255.795 27.0564 257.577 27.4739L274.816 31.5109ZM261.767 50.0958C260.531 49.6592 259.155 49.7763 258.084 50.3433C257.607 49.2294 256.61 48.2741 255.375 47.8376C253.187 47.0649 250.905 48.0528 250.183 50.0976C249.301 52.5926 250.994 55.4907 253.56 59.8735L254.28 61.111L255.618 60.6009C260.368 58.8024 263.505 57.6106 264.387 55.1155C265.109 53.0707 263.954 50.8685 261.767 50.0958ZM283.482 15.6605C283.825 15.7819 284.004 16.1581 283.883 16.5012C283.834 16.6392 283.742 16.7573 283.618 16.8353C282.499 17.5405 280.963 18.4059 279.01 19.431C277.022 20.4812 274.874 21.5066 272.568 22.5066C270.851 23.2509 269.264 23.8551 267.806 24.319C266.987 24.5798 266.106 24.5418 265.295 24.2554L262.065 23.1143C261.66 22.9708 261.447 22.5255 261.59 22.1199C261.651 21.9476 261.771 21.8028 261.928 21.709C263.065 21.0284 264.374 20.1905 265.856 19.1963C267.465 18.0749 269.043 16.943 270.592 15.8005C271.2 15.3361 271.772 14.887 272.308 14.4536C273.739 13.2971 275.664 12.8984 277.398 13.5112L283.482 15.6605Z" fill="#F5C15F"/>
<path d="M125 13.4926C150.958 13.4926 172 34.758 172 60.9926C172 87.2272 150.958 108.493 125 108.493C117.737 108.505 110.57 106.806 104.069 103.533C103.057 103.021 101.548 102.972 99.2002 103.557C98.0145 103.864 96.8423 104.222 95.6865 104.629L95.2715 104.776C94.2063 105.136 93.0542 105.526 91.9746 105.818C85.1007 107.679 78.8053 101.317 80.6465 94.3647C80.9357 93.2782 81.321 92.1083 81.6777 91.0365L81.8223 90.6176C82.2251 89.4496 82.5791 88.265 82.8828 87.0668C83.4565 84.6943 83.4086 83.169 82.9072 82.1459C79.7643 75.7687 78 68.5828 78 60.9926C78 48.3948 82.9514 36.3127 91.7656 27.4047C100.58 18.4967 112.535 13.4926 125 13.4926ZM125.5 39.4926C119.267 39.4926 113.29 42.021 108.883 46.5219C104.476 51.0228 102 57.1274 102 63.4926C102 67.3276 102.883 70.958 104.454 74.1801C104.705 74.697 104.728 75.4678 104.441 76.6664C104.29 77.2719 104.113 77.8711 103.911 78.4613L103.839 78.6732C103.661 79.2146 103.468 79.8052 103.323 80.3539C102.403 83.8665 105.55 87.0813 108.987 86.141C109.527 85.9934 110.103 85.7968 110.636 85.6147L110.843 85.5404C111.421 85.3347 112.008 85.1545 112.601 84.9994C113.774 84.7042 114.528 84.7285 115.034 84.9867C118.285 86.6408 121.868 87.4988 125.5 87.4926C138.479 87.4926 149 76.748 149 63.4926C149 50.2372 138.479 39.4926 125.5 39.4926Z" fill="#F5C15F"/>
<path d="M136 56.1056C136 57.2382 130.851 58.9999 124.5 58.9999C118.149 58.9999 113 57.2382 113 56.1056C113 55.7281 114.917 56.4831 124.5 56.4831C134.083 56.4831 136 55.7281 136 56.1056Z" fill="#EB877C"/>
<path d="M124.34 57.3897C119.56 57.3897 115.577 56.593 115.577 56.593V66.153C115.577 70.9928 119.5 74.9164 124.34 74.9164C129.18 74.9164 133.103 70.9928 133.103 66.153V56.593C133.103 56.593 129.12 57.3897 124.34 57.3897Z" fill="#E55D4E"/>
<path d="M124.657 71.7733C124.657 71.9893 124.595 72.1964 124.485 72.3491C124.375 72.5018 124.226 72.5876 124.07 72.5876C123.915 72.5876 123.766 72.5018 123.656 72.3491C123.546 72.1964 123.484 71.9893 123.484 71.7733V58.7452C123.484 58.5293 123.546 58.3222 123.656 58.1695C123.766 58.0168 123.915 57.931 124.07 57.931C124.226 57.931 124.375 58.0168 124.485 58.1695C124.595 58.3222 124.657 58.5293 124.657 58.7452V71.7733Z" fill="#FFA3AF"/>
<path d="M136 56.1056C136 57.2382 130.851 58.9999 124.5 58.9999C118.149 58.9999 113 57.2382 113 56.1056C113 55.7281 114.917 56.4831 124.5 56.4831C134.083 56.4831 136 55.7281 136 56.1056Z" fill="#EB877C"/>
<path d="M124.34 57.3897C119.56 57.3897 115.577 56.593 115.577 56.593V66.153C115.577 70.9928 119.5 74.9164 124.34 74.9164C129.18 74.9164 133.103 70.9928 133.103 66.153V56.593C133.103 56.593 129.12 57.3897 124.34 57.3897Z" fill="#E55D4E"/>
<path d="M124.657 71.7733C124.657 71.9893 124.595 72.1964 124.485 72.3491C124.375 72.5018 124.226 72.5876 124.07 72.5876C123.915 72.5876 123.766 72.5018 123.656 72.3491C123.546 72.1964 123.484 71.9893 123.484 71.7733V58.7452C123.484 58.5293 123.546 58.3222 123.656 58.1695C123.766 58.0168 123.915 57.931 124.07 57.931C124.226 57.931 124.375 58.0168 124.485 58.1695C124.595 58.3222 124.657 58.5293 124.657 58.7452V71.7733Z" fill="#FFA3AF"/>
</svg>
