<svg width="303" height="117" viewBox="0 0 303 117" fill="none" xmlns="http://www.w3.org/2000/svg">
<path d="M76.5892 80.9761C78.8946 86.2115 75.957 92.3913 70.6609 94.5537C63.3318 97.546 55.7879 101.207 48.9226 102.877C41.9954 104.565 34.5654 107.096 27.2624 109.298C21.8969 110.916 16.4573 107.488 15.4718 101.971C13.4111 90.4358 11.7303 78.3719 9.53423 67.4439C7.34691 56.5539 5.01986 45.6207 2.55307 34.6443C1.31193 29.1217 4.85894 23.6548 10.3968 22.483C12.7538 21.9842 15.0937 21.4753 17.4164 20.9562C18.9562 20.612 20.4983 20.2616 22.0426 19.9049C28.3431 18.4498 34.4337 23.152 34.5802 29.6167C34.6157 31.1801 34.6548 32.7457 34.6976 34.3135C34.9298 40.0445 35.3431 45.7815 35.9376 51.5246C36.4543 56.3456 37.0147 61.1587 37.6186 65.9638C37.8218 67.3784 38.0257 68.7963 38.2302 70.2177C39.0224 75.7243 44.1599 79.5318 49.6442 78.5977C52.0146 78.1939 54.3674 77.7797 56.7024 77.355C60.0426 76.7475 63.3877 76.1663 66.7374 75.6113C70.8603 74.9283 74.905 77.1514 76.5892 80.9761Z" fill="#5FDBD7"/>
<path d="M233.921 102.744C232.972 108.291 227.633 111.963 222.116 110.853C215.127 109.447 208.162 108.03 201.221 106.6C194.325 105.184 187.394 103.739 180.428 102.268C174.945 101.109 171.498 95.661 172.799 90.21C175.408 79.2774 178.051 68.424 180.726 57.6498C183.41 46.8468 185.985 35.9447 188.453 24.9436C189.691 19.4204 195.235 15.9945 200.742 17.3027C203.096 17.8617 205.438 18.4041 207.769 18.9298C209.317 19.279 210.871 19.6235 212.429 19.9632C218.746 21.3408 222.242 28.1954 219.611 34.1022C218.971 35.5394 218.333 36.9802 217.698 38.4246C215.454 43.7134 213.372 49.0853 211.451 54.5403C209.855 59.127 208.301 63.7252 206.791 68.3349C206.367 69.7081 205.943 71.0847 205.518 72.4646C203.88 77.7814 206.897 83.4197 212.254 84.9198C214.579 85.5707 216.892 86.2045 219.194 86.8212C221.906 87.5479 224.613 88.2922 227.315 89.0541C232.189 90.4281 235.199 95.2784 234.344 100.27L233.921 102.744Z" fill="#5FDBD7"/>
<path fill-rule="evenodd" clip-rule="evenodd" d="M274.816 31.5111C277.226 32.0756 278.86 34.3188 278.659 36.7859L272.942 106.899C272.73 109.494 270.563 111.493 267.959 111.493L255.692 111.493C252.675 111.493 250.346 108.84 250.735 105.847L254.175 79.4049C254.473 77.1108 253.159 74.9115 250.997 74.0877L248.182 73.0145C246.521 72.3816 244.649 72.6782 243.265 73.7931L231.388 83.3618C230.039 84.4483 228.224 84.7599 226.591 84.1849L216.039 80.4706C212.683 79.2892 211.6 75.0797 213.969 72.4251L252.707 29.0136C253.926 27.6474 255.794 27.0564 257.577 27.4737L274.816 31.5111ZM261.767 50.0959C260.531 49.6594 259.156 49.7766 258.085 50.3434C257.607 49.2295 256.61 48.2744 255.375 47.8378C253.187 47.065 250.905 48.0527 250.182 50.0974C249.301 52.5924 250.993 55.4908 253.559 59.8734L254.281 61.1112L255.619 60.601C260.368 58.8026 263.506 57.6107 264.387 55.1157C265.109 53.0709 263.954 50.8688 261.767 50.0959ZM283.481 15.6603C283.825 15.7816 284.005 16.1582 283.883 16.5014C283.835 16.6393 283.742 16.7574 283.618 16.8355C282.5 17.5407 280.963 18.4056 279.009 19.4308C277.022 20.481 274.874 21.5067 272.568 22.5068C270.851 23.2511 269.264 23.8553 267.806 24.3192C266.987 24.58 266.106 24.5419 265.296 24.2556L262.065 23.1145C261.66 22.9711 261.447 22.5258 261.59 22.1201C261.651 21.9478 261.771 21.803 261.928 21.7092C263.065 21.0286 264.374 20.1907 265.857 19.1965C267.465 18.0751 269.044 16.9432 270.592 15.8007C271.2 15.3362 271.772 14.8872 272.309 14.4538C273.74 13.2973 275.664 12.8986 277.399 13.5114L283.481 15.6603Z" fill="#5FDBD7"/>
<path d="M125 13.4927C150.958 13.4927 172 34.7581 172 60.9927C172 87.2273 150.958 108.493 125 108.493C117.737 108.505 110.57 106.806 104.069 103.533C103.057 103.021 101.548 102.973 99.2002 103.557C98.0145 103.864 96.8423 104.222 95.6865 104.629L95.2715 104.776C94.2063 105.136 93.0542 105.526 91.9746 105.818C85.1007 107.679 78.8053 101.317 80.6465 94.3647C80.9357 93.2783 81.321 92.1084 81.6777 91.0366L81.8223 90.6177C82.2251 89.4497 82.5791 88.2651 82.8828 87.0669C83.4565 84.6943 83.4086 83.1691 82.9072 82.146C79.7643 75.7688 78 68.5829 78 60.9927C78 48.3949 82.9514 36.3128 91.7656 27.4048C100.58 18.4968 112.535 13.4927 125 13.4927ZM125.5 39.4927C119.267 39.4927 113.29 42.0211 108.883 46.522C104.476 51.0228 102 57.1275 102 63.4927C102 67.3277 102.883 70.9581 104.454 74.1802C104.705 74.6971 104.728 75.4679 104.441 76.6665C104.29 77.272 104.113 77.8712 103.911 78.4614L103.839 78.6733C103.661 79.2147 103.468 79.8053 103.323 80.354C102.403 83.8666 105.55 87.0814 108.987 86.1411C109.527 85.9934 110.103 85.7969 110.636 85.6147L110.843 85.5405C111.421 85.3348 112.008 85.1546 112.601 84.9995C113.774 84.7042 114.528 84.7285 115.034 84.9868C118.285 86.6409 121.868 87.4988 125.5 87.4927C138.479 87.4927 149 76.748 149 63.4927C149 50.2373 138.479 39.4927 125.5 39.4927Z" fill="#5FDBD7"/>
<path d="M137 56.378C137 57.5105 131.851 59.2723 125.5 59.2723C119.149 59.2723 114 57.5105 114 56.378C114 56.0005 115.917 56.7555 125.5 56.7555C135.083 56.7555 137 56.0005 137 56.378Z" fill="#EB877C"/>
<path d="M125.34 57.6621C120.56 57.6621 116.577 56.8654 116.577 56.8654V66.4254C116.577 71.2652 120.5 75.1887 125.34 75.1887C130.18 75.1887 134.103 71.2652 134.103 66.4254V56.8654C134.103 56.8654 130.12 57.6621 125.34 57.6621Z" fill="#E55D4E"/>
<path d="M125.657 72.0457C125.657 72.2616 125.595 72.4687 125.485 72.6215C125.375 72.7742 125.226 72.8599 125.07 72.8599C124.915 72.8599 124.766 72.7742 124.656 72.6215C124.546 72.4687 124.484 72.2616 124.484 72.0457V59.0176C124.484 58.8017 124.546 58.5945 124.656 58.4418C124.766 58.2891 124.915 58.2034 125.07 58.2034C125.226 58.2034 125.375 58.2891 125.485 58.4418C125.595 58.5945 125.657 58.8017 125.657 59.0176V72.0457Z" fill="#FFA3AF"/>
<path d="M137 56.378C137 57.5105 131.851 59.2723 125.5 59.2723C119.149 59.2723 114 57.5105 114 56.378C114 56.0005 115.917 56.7555 125.5 56.7555C135.083 56.7555 137 56.0005 137 56.378Z" fill="#EB877C"/>
<path d="M125.34 57.6621C120.56 57.6621 116.577 56.8654 116.577 56.8654V66.4254C116.577 71.2652 120.5 75.1887 125.34 75.1887C130.18 75.1887 134.103 71.2652 134.103 66.4254V56.8654C134.103 56.8654 130.12 57.6621 125.34 57.6621Z" fill="#E55D4E"/>
<path d="M125.657 72.0457C125.657 72.2616 125.595 72.4687 125.485 72.6215C125.375 72.7742 125.226 72.8599 125.07 72.8599C124.915 72.8599 124.766 72.7742 124.656 72.6215C124.546 72.4687 124.484 72.2616 124.484 72.0457V59.0176C124.484 58.8017 124.546 58.5945 124.656 58.4418C124.766 58.2891 124.915 58.2034 125.07 58.2034C125.226 58.2034 125.375 58.2891 125.485 58.4418C125.595 58.5945 125.657 58.8017 125.657 59.0176V72.0457Z" fill="#FFA3AF"/>
</svg>
