<svg width="358" height="204" viewBox="0 0 358 204" fill="none" xmlns="http://www.w3.org/2000/svg">
<path d="M196.188 0C215.278 5.49242e-05 231.385 12.1269 236.45 28.7158C237 28.6955 237.552 28.6826 238.107 28.6826C245.266 28.6826 252.004 30.3886 257.899 33.3945C265.215 27.4755 274.697 23.9014 285.059 23.9014C308.211 23.9014 326.979 41.7373 326.979 63.7383C326.979 64.192 326.967 64.6437 326.951 65.0938C344.832 69.6443 358 85.1467 358 103.574C358 116.067 351.947 127.214 342.479 134.518C342.76 136.381 342.908 138.286 342.908 140.224C342.908 162.225 324.14 180.06 300.988 180.06C291.025 180.06 281.876 176.754 274.683 171.237C266.999 179.574 255.716 184.841 243.138 184.841C231.906 184.841 221.706 180.642 214.18 173.807C206.75 180.169 196.915 184.044 186.126 184.044C181.488 184.044 177.026 183.326 172.855 182.004C165.811 194.592 151.872 203.165 135.822 203.165C120.386 203.165 106.9 195.235 99.625 183.429C91.9686 193 79.8621 199.182 66.2344 199.182C43.0824 199.182 24.3135 181.346 24.3135 159.345C24.3136 150.945 27.0514 143.153 31.7227 136.729C21.1002 130.518 13.614 119.933 12.0449 107.614C4.59709 100.424 6.87123e-05 90.5592 0 79.6729C0 57.672 18.7681 39.8362 41.9199 39.8359C43.9097 39.8359 45.8673 39.9708 47.7832 40.2256C55.0907 28.5443 68.5026 20.7148 83.8408 20.7148C93.7729 20.7149 102.896 23.9999 110.079 29.4854C117.618 22.5757 127.874 18.3252 139.176 18.3252C146.076 18.3252 152.586 19.9095 158.326 22.7158C165.065 9.28317 179.485 0 196.188 0Z" fill="white"/>
<path d="M119.562 124.384C121.626 129.069 118.997 134.6 114.257 136.536C107.697 139.214 100.945 142.49 94.8008 143.985C88.9249 145.417 82.6449 147.527 76.4406 149.421C71.0807 151.057 65.6463 147.637 64.6751 142.118C62.915 132.116 61.4467 121.72 59.5482 112.272C57.661 102.877 55.6576 93.4452 53.538 83.9779C52.3014 78.4542 55.8482 72.9884 61.3838 71.8062C63.1341 71.4324 64.8737 71.0522 66.6027 70.6658C67.5493 70.4542 68.4969 70.24 69.4454 70.0232C75.749 68.582 81.8395 73.2838 81.9955 79.7482C82.0186 80.7048 82.0432 81.6623 82.0693 82.6207C82.2772 87.7498 82.6471 92.8845 83.1791 98.0245C83.6416 102.339 84.1431 106.647 84.6836 110.948C84.8154 111.865 84.9476 112.784 85.08 113.705C85.8719 119.211 91.0096 123.02 96.4923 122.076C98.2605 121.771 100.018 121.46 101.764 121.143C104.753 120.599 107.747 120.079 110.745 119.582C114.435 118.971 118.055 120.961 119.562 124.384Z" fill="#C57BDB"/>
<path d="M260.556 142.802C259.607 148.35 254.268 152.022 248.751 150.911C242.851 149.722 236.97 148.525 231.108 147.317C225.282 146.121 219.428 144.902 213.547 143.661C208.064 142.504 204.616 137.056 205.919 131.605C208.174 122.173 210.456 112.807 212.765 103.507C215.081 94.1853 217.306 84.7817 219.442 75.2957C220.685 69.7734 226.228 66.3485 231.738 67.6462C233.488 68.0586 235.232 68.4605 236.968 68.8522C237.923 69.0674 238.879 69.2807 239.838 69.4919C246.153 70.8835 249.649 77.7377 247.026 83.6483C246.635 84.5307 246.244 85.4146 245.855 86.3C243.846 91.0335 241.983 95.8414 240.264 100.724C238.835 104.829 237.445 108.944 236.093 113.07C235.817 113.962 235.542 114.856 235.266 115.752C233.628 121.069 236.645 126.708 242.004 128.198C243.741 128.681 245.471 129.154 247.193 129.615C249.321 130.185 251.444 130.767 253.565 131.361C258.441 132.727 261.45 137.579 260.596 142.57L260.556 142.802Z" fill="#C57BDB"/>
<path fill-rule="evenodd" clip-rule="evenodd" d="M296.535 80.009C298.945 80.5734 300.579 82.8166 300.378 85.2838L295.338 147.102C295.126 149.697 292.958 151.697 290.355 151.697L280.458 151.696C277.44 151.696 275.11 149.043 275.499 146.051L278.449 123.389C278.747 121.095 277.433 118.895 275.271 118.071L273.42 117.366C271.759 116.733 269.887 117.029 268.503 118.144L258.335 126.336C256.987 127.422 255.172 127.734 253.538 127.159L245.109 124.191C241.753 123.01 240.67 118.8 243.038 116.146L276.979 78.1102C278.198 76.744 280.067 76.1532 281.85 76.5707L296.535 80.009ZM285.297 96.7458C284.191 96.3551 282.959 96.4597 282 96.9671C281.573 95.9704 280.681 95.1155 279.576 94.7247C277.618 94.0331 275.575 94.9174 274.929 96.7473C274.14 98.9803 275.654 101.574 277.95 105.497L278.596 106.604L279.794 106.148C284.045 104.538 286.852 103.471 287.641 101.238C288.287 99.4083 287.254 97.4375 285.297 96.7458ZM304.731 65.9261C305.038 66.0346 305.199 66.3715 305.091 66.6787C305.047 66.8023 304.963 66.9079 304.853 66.9778C303.851 67.6089 302.476 68.3836 300.728 69.301C298.949 70.2409 297.028 71.1586 294.963 72.0536C293.427 72.7198 292.006 73.2605 290.701 73.6757C289.968 73.9089 289.18 73.8748 288.455 73.6187L285.564 72.5973C285.201 72.469 285.01 72.0707 285.139 71.7076C285.193 71.5534 285.3 71.4238 285.44 71.3398C286.458 70.7308 287.63 69.9814 288.956 69.0916C290.396 68.0879 291.809 67.0744 293.196 66.0517C293.648 65.7058 294.079 65.3692 294.487 65.0425C295.924 63.8934 297.847 63.4944 299.582 64.1071L304.731 65.9261Z" fill="#C57BDB"/>
<path d="M162.89 63.986C186.123 63.9862 204.955 83.0189 204.955 106.499C204.955 129.978 186.123 149.011 162.89 149.011C156.39 149.022 149.975 147.502 144.157 144.572C143.251 144.114 141.901 144.071 139.8 144.594C138.738 144.869 137.689 145.189 136.654 145.553L136.283 145.684C135.33 146.007 134.299 146.355 133.333 146.617C127.18 148.282 121.545 142.588 123.193 136.366C123.452 135.394 123.798 134.347 124.117 133.388L124.246 133.013C124.606 131.968 124.923 130.907 125.195 129.835C125.708 127.711 125.665 126.346 125.217 125.43C122.404 119.723 120.825 113.292 120.825 106.499C120.825 95.2237 125.257 84.4098 133.145 76.4372C141.034 68.4646 151.734 63.986 162.89 63.986ZM163.338 87.2565C157.76 87.2565 152.41 89.5193 148.466 93.5475C144.521 97.5758 142.305 103.039 142.305 108.736C142.305 112.168 143.094 115.418 144.501 118.301C144.725 118.764 144.747 119.454 144.49 120.527C144.354 121.069 144.196 121.604 144.015 122.132L143.951 122.322C143.791 122.807 143.618 123.336 143.489 123.827C142.665 126.971 145.482 129.848 148.558 129.007C149.042 128.874 149.557 128.698 150.034 128.535L150.219 128.469C150.737 128.285 151.262 128.123 151.793 127.984C152.843 127.72 153.518 127.742 153.971 127.973C156.881 129.454 160.087 130.222 163.338 130.216C174.954 130.216 184.37 120.6 184.37 108.736C184.37 96.8725 174.954 87.2566 163.338 87.2565Z" fill="#C57BDB"/>
<path d="M175 101.106C175 102.238 169.851 104 163.5 104C157.149 104 152 102.238 152 101.106C152 100.728 153.917 101.483 163.5 101.483C173.083 101.483 175 100.728 175 101.106Z" fill="#EB877C"/>
<path d="M163.34 102.39C158.56 102.39 154.577 101.593 154.577 101.593V111.153C154.577 115.993 158.5 119.916 163.34 119.916C168.18 119.916 172.103 115.993 172.103 111.153V101.593C172.103 101.593 168.12 102.39 163.34 102.39Z" fill="#E55D4E"/>
<path d="M163.657 116.773C163.657 116.989 163.595 117.196 163.485 117.349C163.375 117.502 163.226 117.588 163.07 117.588C162.915 117.588 162.766 117.502 162.656 117.349C162.546 117.196 162.484 116.989 162.484 116.773V103.745C162.484 103.529 162.546 103.322 162.656 103.17C162.766 103.017 162.915 102.931 163.07 102.931C163.226 102.931 163.375 103.017 163.485 103.17C163.595 103.322 163.657 103.529 163.657 103.745V116.773Z" fill="#FFA3AF"/>
</svg>
