<svg width="476" height="315" viewBox="0 0 476 315" fill="none" xmlns="http://www.w3.org/2000/svg">
<path d="M311.546 264L313.902 253.647L306 246.684L316.44 245.763L320.5 236L324.56 245.763L335 246.684L327.097 253.647L329.454 264L320.5 258.511L311.546 264Z" fill="#F5C15F"/>
<path d="M209.442 17L210.905 10.7145L206 6.48684L212.48 5.92763L215 0L217.52 5.92763L224 6.48684L219.095 10.7145L220.557 17L215 13.6671L209.442 17Z" fill="#F5C15F"/>
<path d="M33.0985 66.1757L30.9799 65.2632C23.4624 62.0424 18.4967 59.9083 17.0521 55.7152C15.8681 52.2783 17.6362 48.6705 21.0619 47.4903C22.9973 46.8236 25.1651 47.0846 26.8641 48.0794C27.5898 46.2492 29.1369 44.7084 31.0722 44.0416C34.4979 42.8614 38.113 44.6147 39.297 48.0515C40.7416 52.2447 38.144 56.9843 34.2054 64.1519L33.0985 66.1757Z" fill="#73125B"/>
<path fill-rule="evenodd" clip-rule="evenodd" d="M400.651 3.86838C407.225 5.40129 413.669 7.44741 419.923 9.98709L423.693 11.5168C425.076 12.0788 426.232 13.0783 426.976 14.3548C427.72 15.6313 428.008 17.1106 427.794 18.555L427.551 20.1896C426.728 25.7315 424.971 31.0888 422.351 36.0423C421.725 37.2274 420.692 38.1537 419.432 38.6592C418.173 39.1646 416.766 39.2172 415.459 38.8076L394.067 32.1296C393.574 31.9756 393.053 31.9434 392.548 32.0363L381.698 34.0238C381.381 34.0819 381.053 34.058 380.746 33.9546C380.439 33.8511 380.164 33.6716 379.947 33.4336C379.73 33.1956 379.579 32.9072 379.509 32.5967C379.438 32.2861 379.451 31.964 379.546 31.6617L385.74 11.8189C386.645 8.92285 388.635 6.48335 391.313 4.98892C393.991 3.49449 397.158 3.05545 400.18 3.75974L400.651 3.86838ZM397.048 15.3924C396.258 15.1457 395.404 15.216 394.675 15.5878C393.946 15.9595 393.401 16.6023 393.16 17.3747C392.919 18.147 393.001 18.9858 393.39 19.7063C393.778 20.4269 394.44 20.9702 395.23 21.2169C396.02 21.4635 396.873 21.3932 397.603 21.0215C398.332 20.6498 398.877 20.007 399.118 19.2346C399.359 18.4622 399.276 17.6235 398.888 16.903C398.5 16.1824 397.838 15.639 397.048 15.3924ZM406.581 18.3683C405.791 18.1217 404.937 18.192 404.208 18.5637C403.479 18.9355 402.934 19.5782 402.693 20.3506C402.452 21.123 402.534 21.9617 402.922 22.6822C403.311 23.4028 403.973 23.9462 404.763 24.1928C405.553 24.4395 406.406 24.3692 407.135 23.9974C407.865 23.6257 408.41 22.9829 408.651 22.2105C408.892 21.4382 408.809 20.5995 408.421 19.8789C408.033 19.1583 407.371 18.615 406.581 18.3683ZM412.226 23.3265C412.467 22.5541 413.012 21.9114 413.741 21.5396C414.47 21.1679 415.324 21.0976 416.114 21.3443C416.904 21.5909 417.566 22.1343 417.954 22.8548C418.342 23.5754 418.425 24.4141 418.184 25.1865C417.943 25.9589 417.397 26.6016 416.668 26.9734C415.939 27.3451 415.086 27.4154 414.295 27.1687C413.505 26.9221 412.843 26.3787 412.455 25.6582C412.067 24.9376 411.984 24.0989 412.226 23.3265Z" fill="#5FDBD7"/>
<path d="M6.37592 209.315C4.67118 209.71 2.94875 208.621 2.5483 206.895L0.728087 199.047C0.327639 197.321 1.39479 195.585 3.09953 195.19L15.4976 192.314C17.2024 191.918 18.9248 193.007 19.3252 194.734L21.1455 202.581C21.5459 204.307 20.4788 206.043 18.774 206.439L15.6745 207.158L16.7666 211.866L11.0252 208.236L6.37592 209.315ZM36.4559 212.261C38.1607 211.865 39.2278 210.129 38.8274 208.403L37.0071 200.556C36.6067 198.829 34.8843 197.74 33.1795 198.136L23.881 200.292L24.245 201.862C25.0459 205.315 22.9116 208.787 19.5021 209.578L20.2302 212.717C20.6306 214.443 22.3531 215.532 24.0578 215.136L27.1573 214.417L28.2495 219.126L31.8066 213.339L36.4559 212.261Z" fill="#F5C15F"/>
<path d="M41 312.871C72 300.371 189.5 225.371 174 280.371C78 299.871 209.2 176.071 314 120.871C381 94.2044 446 -9.62897 474 42.371" stroke="white" stroke-width="3" stroke-dasharray="6 6"/>
<path d="M250.188 28C269.278 28.0001 285.385 40.1269 290.45 56.7158C291 56.6955 291.552 56.6826 292.107 56.6826C299.266 56.6826 306.004 58.3886 311.899 61.3945C319.215 55.4755 328.697 51.9014 339.059 51.9014C362.211 51.9014 380.979 69.7373 380.979 91.7383C380.979 92.192 380.967 92.6437 380.951 93.0938C398.832 97.6443 412 113.147 412 131.574C412 144.067 405.947 155.214 396.479 162.518C396.76 164.381 396.908 166.286 396.908 168.224C396.908 190.225 378.14 208.06 354.988 208.06C345.025 208.06 335.876 204.754 328.683 199.237C320.999 207.574 309.716 212.841 297.138 212.841C285.906 212.841 275.706 208.642 268.18 201.807C260.75 208.169 250.915 212.044 240.126 212.044C235.488 212.044 231.026 211.326 226.855 210.004C219.811 222.592 205.872 231.165 189.822 231.165C174.386 231.165 160.9 223.235 153.625 211.429C145.969 221 133.862 227.182 120.234 227.182C97.0824 227.182 78.3135 209.346 78.3135 187.345C78.3136 178.945 81.0514 171.153 85.7227 164.729C75.1002 158.518 67.614 147.933 66.0449 135.614C58.5971 128.424 54.0001 118.559 54 107.673C54 85.672 72.7681 67.8362 95.9199 67.8359C97.9097 67.8359 99.8673 67.9708 101.783 68.2256C109.091 56.5443 122.503 48.7148 137.841 48.7148C147.773 48.7149 156.896 51.9999 164.079 57.4854C171.618 50.5757 181.874 46.3252 193.176 46.3252C200.076 46.3252 206.586 47.9095 212.326 50.7158C219.065 37.2832 233.485 28 250.188 28Z" fill="white"/>
<path d="M173.562 152.384C175.626 157.069 172.997 162.6 168.257 164.536C161.697 167.214 154.945 170.49 148.801 171.985C142.925 173.417 136.645 175.527 130.441 177.421C125.081 179.057 119.646 175.637 118.675 170.118C116.915 160.116 115.447 149.72 113.548 140.272C111.661 130.877 109.658 121.445 107.538 111.978C106.302 106.454 109.848 100.988 115.384 99.8062C117.134 99.4324 118.874 99.0522 120.603 98.6658C121.549 98.4542 122.497 98.24 123.445 98.0232C129.749 96.582 135.84 101.284 135.996 107.748C136.019 108.705 136.043 109.662 136.069 110.621C136.277 115.75 136.647 120.884 137.179 126.025C137.642 130.339 138.143 134.647 138.684 138.948C138.816 139.865 138.948 140.784 139.08 141.705C139.872 147.211 145.01 151.02 150.492 150.076C152.261 149.771 154.018 149.46 155.764 149.143C158.753 148.599 161.747 148.079 164.745 147.582C168.435 146.971 172.055 148.961 173.562 152.384Z" fill="#5FDBD7"/>
<path d="M314.556 170.802C313.607 176.35 308.268 180.022 302.751 178.911C296.851 177.722 290.97 176.525 285.108 175.317C279.282 174.121 273.428 172.902 267.547 171.661C262.064 170.504 258.616 165.056 259.919 159.605C262.174 150.173 264.456 140.807 266.765 131.507C269.081 122.185 271.306 112.782 273.442 103.296C274.685 97.7734 280.228 94.3485 285.738 95.6462C287.488 96.0586 289.232 96.4605 290.968 96.8522C291.923 97.0674 292.879 97.2807 293.838 97.4919C300.153 98.8835 303.649 105.738 301.026 111.648C300.635 112.531 300.244 113.415 299.855 114.3C297.846 119.034 295.983 123.841 294.264 128.724C292.835 132.829 291.445 136.944 290.093 141.07C289.817 141.962 289.542 142.856 289.266 143.752C287.628 149.069 290.645 154.708 296.004 156.198C297.741 156.681 299.471 157.154 301.193 157.615C303.321 158.185 305.444 158.767 307.565 159.361C312.441 160.727 315.45 165.579 314.596 170.57L314.556 170.802Z" fill="#5FDBD7"/>
<path d="M350.535 108.009C352.945 108.573 354.579 110.817 354.378 113.284L349.338 175.102C349.126 177.697 346.958 179.697 344.355 179.697L334.458 179.696C331.44 179.696 329.111 177.043 329.5 174.051L332.449 151.389C332.747 149.094 331.433 146.895 329.271 146.071L327.42 145.366C325.759 144.733 323.887 145.029 322.503 146.144L312.335 154.336C310.987 155.422 309.172 155.734 307.538 155.159L299.109 152.191C295.753 151.01 294.67 146.8 297.038 144.146L330.979 106.11C332.198 104.744 334.067 104.153 335.85 104.571L350.535 108.009ZM339.297 124.746C338.191 124.355 336.959 124.46 336 124.967C335.573 123.97 334.681 123.115 333.576 122.725C331.618 122.033 329.575 122.917 328.929 124.747C328.14 126.98 329.654 129.574 331.95 133.497L332.596 134.604L333.794 134.148C338.045 132.538 340.853 131.472 341.642 129.239C342.288 127.409 341.254 125.437 339.297 124.746ZM358.731 93.9261C359.038 94.0346 359.199 94.3715 359.091 94.6787C359.047 94.8022 358.964 94.9082 358.853 94.9781C357.852 95.6093 356.477 96.3834 354.728 97.301C352.949 98.2408 351.028 99.1586 348.963 100.054C347.427 100.72 346.006 101.261 344.702 101.676C343.969 101.909 343.18 101.875 342.455 101.619L339.564 100.597C339.201 100.469 339.01 100.071 339.139 99.7075C339.193 99.5534 339.3 99.4238 339.44 99.3398C340.458 98.7308 341.63 97.9813 342.956 97.0916C344.396 96.0878 345.809 95.0744 347.196 94.0517C347.648 93.7058 348.079 93.3692 348.487 93.0425C349.924 91.8934 351.847 91.4944 353.582 92.107L358.731 93.9261Z" fill="#5FDBD7"/>
<path d="M216.891 91.986C240.123 91.9862 258.955 111.019 258.955 134.499C258.955 157.978 240.123 177.011 216.891 177.011C210.39 177.022 203.976 175.502 198.157 172.572C197.251 172.114 195.901 172.071 193.8 172.594C192.739 172.869 191.689 173.189 190.654 173.553L190.283 173.684C189.33 174.007 188.299 174.355 187.333 174.617C181.181 176.282 175.545 170.588 177.193 164.366C177.452 163.394 177.798 162.347 178.117 161.388L178.246 161.013C178.607 159.968 178.923 158.907 179.195 157.835C179.709 155.711 179.665 154.346 179.217 153.43C176.404 147.723 174.825 141.292 174.825 134.499C174.825 123.224 179.257 112.41 187.146 104.437C195.034 96.4646 205.734 91.986 216.891 91.986ZM217.338 115.256C211.76 115.256 206.41 117.519 202.466 121.548C198.521 125.576 196.306 131.039 196.306 136.736C196.306 140.168 197.095 143.418 198.501 146.301C198.725 146.764 198.747 147.454 198.49 148.527C198.354 149.069 198.196 149.604 198.016 150.132L197.951 150.322C197.792 150.807 197.619 151.336 197.489 151.827C196.665 154.97 199.483 157.848 202.559 157.006C203.042 156.874 203.557 156.698 204.034 156.535L204.22 156.469C204.737 156.285 205.262 156.123 205.793 155.984C206.843 155.72 207.519 155.742 207.972 155.973C210.881 157.454 214.088 158.222 217.338 158.216C228.954 158.216 238.37 148.599 238.37 136.736C238.37 124.872 228.954 115.257 217.338 115.256Z" fill="#5FDBD7"/>
<path d="M229 129.106C229 130.238 223.851 132 217.5 132C211.149 132 206 130.238 206 129.106C206 128.728 207.917 129.483 217.5 129.483C227.084 129.483 229 128.728 229 129.106Z" fill="#EB877C"/>
<path d="M217.34 130.39C212.56 130.39 208.577 129.593 208.577 129.593V139.153C208.577 143.993 212.5 147.916 217.34 147.916C222.18 147.916 226.103 143.993 226.103 139.153V129.593C226.103 129.593 222.12 130.39 217.34 130.39Z" fill="#E55D4E"/>
<path d="M217.657 144.773C217.657 144.989 217.595 145.196 217.485 145.349C217.375 145.502 217.226 145.588 217.071 145.588C216.915 145.588 216.766 145.502 216.656 145.349C216.546 145.196 216.484 144.989 216.484 144.773V131.745C216.484 131.529 216.546 131.322 216.656 131.17C216.766 131.017 216.915 130.931 217.071 130.931C217.226 130.931 217.375 131.017 217.485 131.17C217.595 131.322 217.657 131.529 217.657 131.745V144.773Z" fill="#FFA3AF"/>
</svg>
