<svg width="48" height="40" viewBox="0 0 48 40" fill="none" xmlns="http://www.w3.org/2000/svg">
<path fill-rule="evenodd" clip-rule="evenodd" d="M41.2768 0.338369C41.8008 0.0231759 42.4265 -0.0767912 43.0226 0.0594486C43.6187 0.195688 44.1388 0.557542 44.4739 1.06906L46.8149 4.63977C47.1201 5.10623 47.2507 5.66551 47.1836 6.21889C47.1166 6.77227 46.8562 7.28416 46.4484 7.66423L46.4413 7.67369L46.4082 7.70443L46.2734 7.82976L45.7414 8.33817C42.7974 11.1939 39.9426 14.1402 37.1811 17.1727C31.9859 22.8858 25.8164 30.363 21.6639 37.618C20.5052 39.6421 17.6747 40.0772 15.9957 38.3297L0.66061 22.3963C0.440846 22.1679 0.26925 21.8976 0.15602 21.6016C0.0427908 21.3055 -0.0097604 20.9897 0.00149003 20.6729C0.0127405 20.3562 0.0875628 20.0449 0.22151 19.7576C0.355457 19.4703 0.545795 19.2129 0.78121 19.0006L5.41603 14.8198C5.82333 14.4526 6.3456 14.2384 6.89345 14.2138C7.44129 14.1892 7.98065 14.3558 8.41921 14.685L16.244 20.5519C28.4672 8.49897 35.3981 3.8736 41.2768 0.338369Z" fill="#5FDBD7"/>
</svg>
