<svg width="49" height="43" viewBox="0 0 49 43" fill="none" xmlns="http://www.w3.org/2000/svg">
<path d="M2.35823 42.9999C1.92059 42.9999 1.52273 42.8908 1.16466 42.6727C0.806596 42.4545 0.528098 42.1654 0.329171 41.8055C0.130244 41.4456 0.0212321 41.057 0.00213507 40.6397C-0.0169619 40.2225 0.09205 39.8148 0.329171 39.4166L22.4101 1.19444C22.6488 0.796295 22.9575 0.497684 23.3363 0.298611C23.715 0.0995369 24.1026 0 24.4988 0C24.8951 0 25.2834 0.0995369 25.6637 0.298611C26.0441 0.497684 26.352 0.796295 26.5875 1.19444L48.6685 39.4166C48.9072 39.8148 49.017 40.2233 48.9979 40.6421C48.9788 41.061 48.869 41.4487 48.6685 41.8055C48.4679 42.1622 48.1894 42.4513 47.833 42.6727C47.4765 42.894 47.0786 43.0031 46.6394 42.9999H2.35823ZM26.2008 35.1477C26.6576 34.689 26.8859 34.1212 26.8859 33.4444C26.8859 32.7675 26.6568 32.2006 26.1984 31.7435C25.7401 31.2864 25.1736 31.0571 24.4988 31.0555C23.8241 31.0539 23.2575 31.2832 22.7992 31.7435C22.3409 32.2038 22.1117 32.7707 22.1117 33.4444C22.1117 34.1181 22.3409 34.6858 22.7992 35.1477C23.2575 35.6095 23.8241 35.8381 24.4988 35.8333C25.1736 35.8285 25.7409 35.6016 26.2008 35.1477ZM26.2008 27.9786C26.6576 27.5215 26.8859 26.9546 26.8859 26.2777V19.1111C26.8859 18.4342 26.6568 17.8673 26.1984 17.4102C25.7401 16.9531 25.1736 16.7238 24.4988 16.7222C23.8241 16.7206 23.2575 16.9499 22.7992 17.4102C22.3409 17.8705 22.1117 18.4374 22.1117 19.1111V26.2777C22.1117 26.9546 22.3409 27.5223 22.7992 27.981C23.2575 28.4397 23.8241 28.6682 24.4988 28.6666C25.1736 28.665 25.7409 28.4357 26.2008 27.9786Z" fill="#5FDBD7"/>
</svg>
