<svg width="47" height="47" viewBox="0 0 47 47" fill="none" xmlns="http://www.w3.org/2000/svg">
<path d="M23.5 0C20.4139 0 17.3581 0.607846 14.5069 1.78883C11.6558 2.96982 9.06517 4.70081 6.88299 6.88299C2.47589 11.2901 0 17.2674 0 23.5C0 29.7326 2.47589 35.7099 6.88299 40.117C9.06517 42.2992 11.6558 44.0302 14.5069 45.2112C17.3581 46.3922 20.4139 47 23.5 47C29.7326 47 35.7099 44.5241 40.117 40.117C44.5241 35.7099 47 29.7326 47 23.5C47 20.4139 46.3922 17.3581 45.2112 14.5069C44.0302 11.6558 42.2992 9.06517 40.117 6.88299C37.9348 4.70081 35.3442 2.96982 32.4931 1.78883C29.6419 0.607846 26.5861 0 23.5 0ZM33.37 33.37L21.15 25.85V11.75H24.675V23.97L35.25 30.315L33.37 33.37Z" fill="#5FDBD7"/>
</svg>
