<svg width="18" height="18" viewBox="0 0 18 18" fill="none" xmlns="http://www.w3.org/2000/svg">
<path d="M0 9C0 9.972 0.387 10.881 1.053 11.547C0.954 11.889 0.9 12.24 0.9 12.6C0.9 14.364 2.169 15.831 3.879 16.137C4.374 17.244 5.499 18 6.75 18C7.236 18 7.686 17.883 8.1 17.685V0.162C7.821 0.0630001 7.515 0 7.2 0C6.03 0 5.031 0.747 4.653 1.809C3.87239 1.88497 3.14795 2.24861 2.62062 2.82917C2.09329 3.40973 1.80078 4.1657 1.8 4.95C1.8 5.247 1.845 5.535 1.926 5.814C0.783 6.426 0 7.641 0 9ZM16.074 5.814C16.155 5.535 16.2 5.238 16.2 4.95C16.2 3.312 14.949 1.962 13.347 1.818C13.1627 1.28873 12.8187 0.829651 12.3625 0.504046C11.9064 0.178441 11.3604 0.00233551 10.8 0C10.485 0 10.179 0.0630001 9.9 0.162V17.685C10.314 17.883 10.764 18 11.25 18C12.501 18 13.617 17.253 14.121 16.146C14.9549 15.9989 15.7104 15.5629 16.2551 14.9146C16.7998 14.2662 17.0989 13.4468 17.1 12.6C17.1 12.24 17.046 11.889 16.947 11.547C17.622 10.872 18 9.963 18 9C18 7.65 17.226 6.426 16.074 5.814Z" fill="white"/>
</svg>
