<svg width="22" height="16" viewBox="0 0 22 16" fill="none" xmlns="http://www.w3.org/2000/svg">
<path d="M9.50031 7.75C9.50031 7.41848 9.63201 7.10054 9.86643 6.86612C10.1008 6.6317 10.4188 6.5 10.7503 6.5C11.0818 6.5 11.3998 6.6317 11.6342 6.86612C11.8686 7.10054 12.0003 7.41848 12.0003 7.75C12.0003 8.08152 11.8686 8.39946 11.6342 8.63388C11.3998 8.8683 11.0818 9 10.7503 9C10.4188 9 10.1008 8.8683 9.86643 8.63388C9.63201 8.39946 9.50031 8.08152 9.50031 7.75Z" fill="white"/>
<path d="M0.693312 5.903C2.20831 3.824 5.66831 0 10.7503 0C15.8323 0 19.2923 3.824 20.8073 5.903L20.8303 5.934C21.0883 6.289 21.2983 6.577 21.4283 7.076C21.4833 7.288 21.5003 7.54 21.5003 7.75C21.5003 7.96 21.4833 8.212 21.4283 8.424C21.2983 8.924 21.0883 9.211 20.8303 9.566L20.8073 9.597C19.2923 11.676 15.8323 15.5 10.7503 15.5C5.66831 15.5 2.20831 11.676 0.693312 9.597L0.670312 9.566C0.412312 9.211 0.202312 8.923 0.0723116 8.424C0.0211057 8.20308 -0.00307142 7.97675 0.000311567 7.75C0.000311567 7.54 0.0173116 7.288 0.0723116 7.076C0.202312 6.576 0.412312 6.289 0.670312 5.934L0.693312 5.903ZM8.00031 7.75C8.00031 8.47935 8.29004 9.17882 8.80577 9.69454C9.32149 10.2103 10.021 10.5 10.7503 10.5C11.4797 10.5 12.1791 10.2103 12.6949 9.69454C13.2106 9.17882 13.5003 8.47935 13.5003 7.75C13.5003 7.02065 13.2106 6.32118 12.6949 5.80546C12.1791 5.28973 11.4797 5 10.7503 5C10.021 5 9.32149 5.28973 8.80577 5.80546C8.29004 6.32118 8.00031 7.02065 8.00031 7.75ZM9.50031 7.75C9.50031 7.41848 9.63201 7.10054 9.86643 6.86612C10.1008 6.6317 10.4188 6.5 10.7503 6.5C11.0818 6.5 11.3998 6.6317 11.6342 6.86612C11.8686 7.10054 12.0003 7.41848 12.0003 7.75C12.0003 8.08152 11.8686 8.39946 11.6342 8.63388C11.3998 8.8683 11.0818 9 10.7503 9C10.4188 9 10.1008 8.8683 9.86643 8.63388C9.63201 8.39946 9.50031 8.08152 9.50031 7.75Z" fill="white"/>
</svg>
