<svg width="19" height="18" viewBox="0 0 19 18" fill="none" xmlns="http://www.w3.org/2000/svg">
<path d="M1.69444 0.75H16.8056C17.056 0.75 17.2963 0.845136 17.4734 1.01448C17.6505 1.18382 17.75 1.4135 17.75 1.65299V3.08512C17.7499 3.32459 17.6504 3.55423 17.4733 3.72354L11.4156 9.51529C11.2385 9.6846 11.1389 9.91424 11.1389 10.1537V15.847C11.1389 15.9843 11.1062 16.1197 11.0432 16.2431C10.9802 16.3664 10.8887 16.4744 10.7755 16.5589C10.6623 16.6433 10.5305 16.702 10.39 16.7304C10.2496 16.7589 10.1042 16.7563 9.96494 16.7229L8.07606 16.2714C7.87182 16.2225 7.69054 16.1098 7.56101 15.9511C7.43147 15.7924 7.36112 15.5968 7.36111 15.3955V10.1537C7.36106 9.91424 7.26152 9.6846 7.08439 9.51529L1.02672 3.72354C0.849592 3.55423 0.750053 3.32459 0.75 3.08512V1.65299C0.75 1.4135 0.849504 1.18382 1.02662 1.01448C1.20374 0.845136 1.44396 0.75 1.69444 0.75Z" stroke="#EB877C" stroke-width="1.5" stroke-linecap="round" stroke-linejoin="round"/>
</svg>
