<svg width="16" height="16" viewBox="0 0 16 16" fill="none" xmlns="http://www.w3.org/2000/svg">
<path d="M6.33496 6C7.99182 6 9.33496 4.65685 9.33496 3C9.33496 1.34315 7.99182 0 6.33496 0C4.67811 0 3.33496 1.34315 3.33496 3C3.33496 4.65685 4.67811 6 6.33496 6Z" fill="white"/>
<path d="M7.22 14.76C7.05477 14.5966 6.94694 14.384 6.91269 14.1541C6.87844 13.9243 6.91959 13.6895 7.03 13.485L7.295 12.985L6.75 12.82C6.52776 12.7504 6.33427 12.6103 6.19892 12.4208C6.06356 12.2313 5.99372 12.0028 6 11.77V10.745C5.99958 10.5132 6.07373 10.2875 6.21149 10.1011C6.34925 9.91472 6.54331 9.7776 6.765 9.71L7.31 9.545L7.05 9.045C6.94283 8.84329 6.90205 8.6129 6.93347 8.38666C6.9649 8.16042 7.06692 7.94987 7.225 7.785C6.84033 7.73467 6.45294 7.70796 6.065 7.705C4.91916 7.67803 3.78149 7.90423 2.73312 8.36749C1.68475 8.83074 0.751526 9.51962 0 10.385V14.26C0 14.3926 0.0526784 14.5198 0.146447 14.6136C0.240215 14.7073 0.367392 14.76 0.5 14.76H7.22Z" fill="white"/>
<path d="M15.8499 10.58L14.8499 10.28C14.7807 10.033 14.6834 9.79478 14.5599 9.57L15.0599 8.64C15.0792 8.60548 15.0863 8.56543 15.0799 8.52639C15.0736 8.48734 15.0542 8.4516 15.0249 8.425L14.2999 7.695C14.272 7.66782 14.2364 7.64989 14.1979 7.64363C14.1594 7.63737 14.12 7.64308 14.0849 7.66L13.1599 8.16C12.9323 8.03619 12.6927 7.93568 12.4449 7.86L12.1399 6.86C12.1265 6.82313 12.102 6.79131 12.0697 6.76893C12.0375 6.74655 11.9991 6.7347 11.9599 6.735H10.9199C10.8809 6.73609 10.8432 6.74915 10.8119 6.7724C10.7806 6.79566 10.7572 6.82799 10.7449 6.865L10.4449 7.865C10.1925 7.9391 9.94932 8.04141 9.71989 8.17L8.81488 7.67C8.7797 7.6513 8.73953 7.64413 8.70005 7.64952C8.66057 7.6549 8.62378 7.67256 8.59489 7.7L7.85988 8.42C7.83094 8.44789 7.81187 8.48445 7.80556 8.52414C7.79924 8.56383 7.80603 8.6045 7.82489 8.64L8.32489 9.55C8.1908 9.77577 8.08182 10.0155 7.99989 10.265L6.99989 10.57C6.96206 10.5809 6.92886 10.604 6.90538 10.6356C6.8819 10.6672 6.86943 10.7056 6.86989 10.745V11.77C6.86943 11.8094 6.8819 11.8478 6.90538 11.8794C6.92886 11.911 6.96206 11.9341 6.99989 11.945L7.99989 12.25C8.07488 12.4949 8.17543 12.7312 8.29989 12.955L7.79989 13.905C7.78103 13.9405 7.77425 13.9812 7.78056 14.0209C7.78687 14.0606 7.80594 14.0971 7.83489 14.125L8.57989 14.85C8.60878 14.8774 8.64557 14.8951 8.68505 14.9005C8.72453 14.9059 8.7647 14.8987 8.79989 14.88L9.73488 14.38C9.95725 14.5 10.1919 14.5955 10.4349 14.665L10.7349 15.69C10.7475 15.7278 10.7716 15.7607 10.8039 15.784C10.8362 15.8074 10.875 15.8199 10.9149 15.82H11.9399C11.9789 15.8189 12.0166 15.8059 12.0479 15.7826C12.0792 15.7593 12.1026 15.727 12.1149 15.69L12.4149 14.665C12.6548 14.596 12.8862 14.5004 13.1049 14.38L14.0499 14.88C14.0851 14.8987 14.1252 14.9059 14.1647 14.9005C14.2042 14.8951 14.241 14.8774 14.2699 14.85L14.9999 14.125C15.0273 14.0961 15.045 14.0593 15.0504 14.0198C15.0557 13.9804 15.0486 13.9402 15.0299 13.905L14.5299 12.965C14.6492 12.7458 14.7448 12.5145 14.8149 12.275L15.8149 11.97C15.8525 11.9579 15.8855 11.9347 15.9096 11.9035C15.9337 11.8722 15.9477 11.8344 15.9499 11.795V10.76C15.9511 10.7237 15.9424 10.6878 15.9248 10.6561C15.9072 10.6244 15.8813 10.5981 15.8499 10.58ZM11.4349 12.94C11.1044 12.941 10.781 12.8439 10.5057 12.661C10.2304 12.4781 10.0156 12.2176 9.88845 11.9126C9.76128 11.6075 9.72749 11.2716 9.79137 10.9473C9.85524 10.623 10.0139 10.325 10.2472 10.0909C10.4806 9.85685 10.7782 9.69731 11.1022 9.63246C11.4263 9.56762 11.7624 9.6004 12.0678 9.72665C12.3732 9.8529 12.6344 10.0669 12.8181 10.3417C13.0018 10.6164 13.0999 10.9395 13.0999 11.27C13.0999 11.712 12.9246 12.1361 12.6125 12.4491C12.3004 12.7621 11.8769 12.9387 11.4349 12.94Z" fill="white"/>
</svg>
