<svg width="25" height="25" viewBox="0 0 25 25" fill="none" xmlns="http://www.w3.org/2000/svg">
<path d="M23.5 23.5L16.1667 16.1667M1.5 10.0556C1.5 11.1791 1.7213 12.2916 2.15125 13.3296C2.58121 14.3676 3.21141 15.3108 4.00586 16.1052C4.80032 16.8997 5.74348 17.5299 6.78149 17.9599C7.81949 18.3898 8.93202 18.6111 10.0556 18.6111C11.1791 18.6111 12.2916 18.3898 13.3296 17.9599C14.3676 17.5299 15.3108 16.8997 16.1052 16.1052C16.8997 15.3108 17.5299 14.3676 17.9599 13.3296C18.3898 12.2916 18.6111 11.1791 18.6111 10.0556C18.6111 8.93202 18.3898 7.81949 17.9599 6.78149C17.5299 5.74348 16.8997 4.80032 16.1052 4.00586C15.3108 3.21141 14.3676 2.58121 13.3296 2.15125C12.2916 1.7213 11.1791 1.5 10.0556 1.5C8.93202 1.5 7.81949 1.7213 6.78149 2.15125C5.74348 2.58121 4.80032 3.21141 4.00586 4.00586C3.21141 4.80032 2.58121 5.74348 2.15125 6.78149C1.7213 7.81949 1.5 8.93202 1.5 10.0556Z" stroke="#EB877C" stroke-width="3" stroke-linecap="round" stroke-linejoin="round"/>
</svg>
