<svg width="35" height="35" viewBox="0 0 35 35" fill="none" xmlns="http://www.w3.org/2000/svg">
<path d="M18.7368 0.512382L34.4839 16.2626C35.5862 17.3651 34.8059 19.2498 33.2469 19.2498H31.4972V29.7499C31.4972 31.1423 30.9442 32.4777 29.9598 33.4623C28.9754 34.4469 27.6403 35 26.2482 35H24.4985V22.7499C24.4986 21.4107 23.987 20.1222 23.0685 19.1479C22.15 18.1736 20.894 17.5871 19.5574 17.5086L19.2495 17.4998H15.7501C14.358 17.4998 13.0229 18.0529 12.0385 19.0375C11.0541 20.0221 10.5011 21.3575 10.5011 22.7499V35H8.75144C7.35931 35 6.0242 34.4469 5.03981 33.4623C4.05543 32.4777 3.50241 31.1423 3.50241 29.7499V19.2498H1.75273C0.195523 19.2498 -0.586583 17.3651 0.515713 16.2626L16.2628 0.512382C16.5909 0.184304 17.0359 0 17.4998 0C17.9638 0 18.4087 0.184304 18.7368 0.512382ZM19.2495 20.9999C19.7135 20.9999 20.1586 21.1842 20.4867 21.5124C20.8148 21.8406 20.9992 22.2857 20.9992 22.7499V35H14.0005V22.7499C14.0005 22.3212 14.1579 21.9075 14.4426 21.5872C14.7274 21.2669 15.1198 21.0623 15.5454 21.0121L15.7501 20.9999H19.2495Z" fill="white"/>
</svg>
