<svg width="39" height="39" viewBox="0 0 39 39" fill="none" xmlns="http://www.w3.org/2000/svg">
<path d="M34.4651 22.9125C34.4651 22.5246 34.3218 22.1526 34.0666 21.8784C33.8115 21.6041 33.4655 21.45 33.1047 21.45H27.6628C27.302 21.45 26.9559 21.6041 26.7008 21.8784C26.4457 22.1526 26.3023 22.5246 26.3023 22.9125V36.075H23.5814V4.3875C23.5814 2.9679 23.5778 2.0475 23.4943 1.3728C23.4145 0.73905 23.2857 0.54015 23.1823 0.429C23.0789 0.31785 22.8939 0.1794 22.3044 0.0936002C21.6749 0.00390019 20.8206 0 19.5 0C18.1794 0 17.3233 0.00390019 16.6956 0.0936002C16.1061 0.1794 15.9211 0.31785 15.8177 0.429C15.7143 0.54015 15.5855 0.73905 15.5057 1.3728C15.4222 2.04945 15.4186 2.9679 15.4186 4.3875V36.075H12.6977V13.1625C12.6977 12.7746 12.5543 12.4026 12.2992 12.1284C12.0441 11.8541 11.698 11.7 11.3372 11.7H5.89535C5.53453 11.7 5.18849 11.8541 4.93335 12.1284C4.67822 12.4026 4.53488 12.7746 4.53488 13.1625V36.075H1.36047C0.999647 36.075 0.653608 36.2291 0.398471 36.5034C0.143334 36.7776 0 37.1496 0 37.5375C0 37.9254 0.143334 38.2974 0.398471 38.5716C0.653608 38.8459 0.999647 39 1.36047 39H37.6395C38.0004 39 38.3464 38.8459 38.6015 38.5716C38.8567 38.2974 39 37.9254 39 37.5375C39 37.1496 38.8567 36.7776 38.6015 36.5034C38.3464 36.2291 38.0004 36.075 37.6395 36.075H34.4651V22.9125Z" fill="white"/>
</svg>
