<svg width="44" height="30" viewBox="0 0 44 30" fill="none" xmlns="http://www.w3.org/2000/svg">
<path d="M2.44445 30C1.75186 30 1.17171 29.76 0.704008 29.28C0.236305 28.8 0.00163806 28.2066 8.42911e-06 27.5C-0.0016212 26.7933 0.233046 26.2 0.704008 25.72C1.17497 25.24 1.75512 25 2.44445 25H41.5555C42.2481 25 42.8291 25.24 43.2984 25.72C43.7678 26.2 44.0016 26.7933 44 27.5C43.9984 28.2066 43.7637 28.8008 43.296 29.2825C42.8283 29.7641 42.2481 30.0033 41.5555 30H2.44445ZM2.44445 17.5C1.75186 17.5 1.17171 17.26 0.704008 16.78C0.236305 16.3 0.00163806 15.7066 8.42911e-06 15C-0.0016212 14.2933 0.233046 13.7 0.704008 13.22C1.17497 12.74 1.75512 12.5 2.44445 12.5H41.5555C42.2481 12.5 42.8291 12.74 43.2984 13.22C43.7678 13.7 44.0016 14.2933 44 15C43.9984 15.7066 43.7637 16.3008 43.296 16.7825C42.8283 17.2641 42.2481 17.5033 41.5555 17.5H2.44445ZM2.44445 4.99999C1.75186 4.99999 1.17171 4.75999 0.704008 4.27999C0.236305 3.8 0.00163806 3.20666 8.42911e-06 2.5C-0.0016212 1.79333 0.233046 1.2 0.704008 0.719999C1.17497 0.24 1.75512 0 2.44445 0H41.5555C42.2481 0 42.8291 0.24 43.2984 0.719999C43.7678 1.2 44.0016 1.79333 44 2.5C43.9984 3.20666 43.7637 3.80083 43.296 4.28249C42.8283 4.76416 42.2481 5.00333 41.5555 4.99999H2.44445Z" fill="#EB877C"/>
</svg>
