<svg width="43" height="43" viewBox="0 0 43 43" fill="none" xmlns="http://www.w3.org/2000/svg">
<path d="M42.0867 17.0882H40.375V17H21.25V25.5H33.2594C31.5074 30.4481 26.7994 34 21.25 34C14.2088 34 8.5 28.2912 8.5 21.25C8.5 14.2088 14.2088 8.5 21.25 8.5C24.5002 8.5 27.4571 9.72612 29.7086 11.7289L35.7191 5.71837C31.9239 2.18131 26.8473 0 21.25 0C9.51469 0 0 9.51469 0 21.25C0 32.9853 9.51469 42.5 21.25 42.5C32.9853 42.5 42.5 32.9853 42.5 21.25C42.5 19.8252 42.3534 18.4344 42.0867 17.0882Z" fill="#FFC107"/>
<path d="M2.4502 11.3592L9.43188 16.4794C11.321 11.8022 15.8961 8.5 21.2501 8.5C24.5003 8.5 27.4572 9.72612 29.7086 11.7289L35.7192 5.71837C31.9239 2.18131 26.8473 0 21.2501 0C13.0879 0 6.00957 4.60806 2.4502 11.3592Z" fill="#FF3D00"/>
<path d="M21.2501 42.5C26.739 42.5 31.7263 40.3994 35.4972 36.9835L28.9203 31.4181C26.7155 33.0959 24.0206 34.003 21.2501 34C15.723 34 11.0299 30.4757 9.2619 25.5574L2.33228 30.8964C5.84915 37.7782 12.9913 42.5 21.2501 42.5Z" fill="#4CAF50"/>
<path d="M42.0867 17.0882H40.375V17H21.25V25.5H33.2594C32.4213 27.8549 30.9117 29.9128 28.917 31.4192L28.9202 31.4171L35.4971 36.9824C35.0317 37.4053 42.5 31.875 42.5 21.25C42.5 19.8252 42.3534 18.4344 42.0867 17.0882Z" fill="#1976D2"/>
</svg>
