<svg width="35" height="35" viewBox="0 0 35 35" fill="none" xmlns="http://www.w3.org/2000/svg">
<path d="M15.3401 35C14.5129 35 13.8009 34.7375 13.204 34.2125C12.6072 33.6875 12.2469 33.0458 12.1232 32.2875L11.7096 29.4C11.3113 29.2542 10.9363 29.0792 10.5846 28.875C10.2328 28.6708 9.88787 28.4521 9.54963 28.2188L6.70037 29.3562C5.93444 29.6771 5.1685 29.7063 4.40257 29.4438C3.63664 29.1813 3.03922 28.7146 2.61029 28.0437L0.450367 24.4563C0.0214458 23.7854 -0.101103 23.0708 0.0827207 22.3125C0.266544 21.5542 0.680147 20.9271 1.32353 20.4313L3.75919 18.6813C3.72855 18.4771 3.71324 18.2799 3.71324 18.0897V16.9085C3.71324 16.7195 3.72855 16.5229 3.75919 16.3187L1.32353 14.5687C0.680147 14.0729 0.266544 13.4458 0.0827207 12.6875C-0.101103 11.9292 0.0214458 11.2146 0.450367 10.5437L2.61029 6.95625C3.03922 6.28542 3.63664 5.81875 4.40257 5.55625C5.1685 5.29375 5.93444 5.32292 6.70037 5.64375L9.54963 6.78125C9.88664 6.54792 10.239 6.32917 10.6066 6.125C10.9743 5.92083 11.3419 5.74583 11.7096 5.6L12.1232 2.7125C12.2457 1.95417 12.606 1.3125 13.204 0.7875C13.8021 0.2625 14.5141 0 15.3401 0H19.6599C20.4871 0 21.1998 0.2625 21.7978 0.7875C22.3958 1.3125 22.7555 1.95417 22.8768 2.7125L23.2904 5.6C23.6887 5.74583 24.0643 5.92083 24.4173 6.125C24.7702 6.32917 25.1146 6.54792 25.4504 6.78125L28.2996 5.64375C29.0656 5.32292 29.8315 5.29375 30.5974 5.55625C31.3634 5.81875 31.9608 6.28542 32.3897 6.95625L34.5496 10.5437C34.9786 11.2146 35.1011 11.9292 34.9173 12.6875C34.7335 13.4458 34.3199 14.0729 33.6765 14.5687L31.2408 16.3187C31.2714 16.5229 31.2868 16.7201 31.2868 16.9103V18.0897C31.2868 18.2799 31.2561 18.4771 31.1949 18.6813L33.6305 20.4313C34.2739 20.9271 34.6875 21.5542 34.8713 22.3125C35.0551 23.0708 34.9326 23.7854 34.5037 24.4563L32.2978 28.0437C31.8689 28.7146 31.2714 29.1813 30.5055 29.4438C29.7396 29.7063 28.9737 29.6771 28.2077 29.3562L25.4504 28.2188C25.1134 28.4521 24.761 28.6708 24.3934 28.875C24.0257 29.0792 23.6581 29.2542 23.2904 29.4L22.8768 32.2875C22.7543 33.0458 22.3946 33.6875 21.7978 34.2125C21.201 34.7375 20.4884 35 19.6599 35H15.3401ZM15.6618 31.5H19.2923L19.9357 26.8625C20.8854 26.6292 21.7665 26.2868 22.579 25.8353C23.3915 25.3838 24.1342 24.8366 24.807 24.1937L29.3566 25.9875L31.1489 23.0125L27.1967 20.1687C27.3499 19.7604 27.4571 19.3305 27.5184 18.879C27.5797 18.4275 27.6103 17.9678 27.6103 17.5C27.6103 17.0322 27.5797 16.5731 27.5184 16.1228C27.4571 15.6724 27.3499 15.2419 27.1967 14.8313L31.1489 11.9875L29.3566 9.0125L24.807 10.85C24.133 10.1792 23.3903 9.618 22.579 9.1665C21.7678 8.715 20.8866 8.372 19.9357 8.1375L19.3382 3.5H15.7077L15.0643 8.1375C14.1146 8.37083 13.2341 8.71383 12.4228 9.1665C11.6115 9.61917 10.8683 10.1658 10.193 10.8063L5.64338 9.0125L3.8511 11.9875L7.80331 14.7875C7.65012 15.225 7.54289 15.6625 7.48162 16.1C7.42034 16.5375 7.38971 17.0042 7.38971 17.5C7.38971 17.9667 7.42034 18.4187 7.48162 18.8562C7.54289 19.2937 7.65012 19.7312 7.80331 20.1687L3.8511 23.0125L5.64338 25.9875L10.193 24.15C10.867 24.8208 11.6103 25.3826 12.4228 25.8353C13.2353 26.2879 14.1158 26.6303 15.0643 26.8625L15.6618 31.5ZM17.5919 23.625C19.3689 23.625 20.8854 23.0271 22.1415 21.8313C23.3977 20.6354 24.0257 19.1917 24.0257 17.5C24.0257 15.8083 23.3977 14.3646 22.1415 13.1687C20.8854 11.9729 19.3689 11.375 17.5919 11.375C15.7843 11.375 14.2604 11.9729 13.0202 13.1687C11.78 14.3646 11.1593 15.8083 11.1581 17.5C11.1569 19.1917 11.7776 20.6354 13.0202 21.8313C14.2629 23.0271 15.7868 23.625 17.5919 23.625Z" fill="white"/>
</svg>
