<svg width="45" height="45" viewBox="0 0 45 45" fill="none" xmlns="http://www.w3.org/2000/svg">
<path d="M45 22.6375C45 10.1352 34.9263 0 22.5 0C10.0737 0 0 10.1352 0 22.6375C0 33.9364 8.22797 43.3018 18.9844 45V29.1812H13.2715V22.6375H18.9844V17.6502C18.9844 11.9767 22.3436 8.84278 27.483 8.84278C29.9447 8.84278 32.5195 9.28491 32.5195 9.28491V14.8559H29.6824C26.8873 14.8559 26.0156 16.6009 26.0156 18.3912V22.6375H32.2559L31.2583 29.1812H26.0156V45C36.772 43.3018 45 33.9366 45 22.6375Z" fill="#1877F2"/>
<path d="M31.6895 29.0971L32.726 22.6311H26.242V18.4351C26.242 16.6659 27.1478 14.9417 30.0521 14.9417H33V9.43689C33 9.43689 30.3246 9 27.7666 9C22.4265 9 18.9361 12.0967 18.9361 17.7029V22.6311H13V29.0971H18.9361V44.7283C20.1445 44.9094 21.3659 45.0003 22.589 45C23.8122 45.0003 25.0336 44.9094 26.242 44.7283V29.0971H31.6895Z" fill="white"/>
</svg>
