<svg width="23" height="26" viewBox="0 0 23 26" fill="none" xmlns="http://www.w3.org/2000/svg">
<path d="M9.13104 1.62467C9.32195 1.14465 9.64943 0.733558 10.0715 0.444099C10.4936 0.15464 10.991 0 11.5 0C12.009 0 12.5064 0.15464 12.9285 0.444099C13.3506 0.733558 13.678 1.14465 13.869 1.62467C15.7588 2.15272 17.4258 3.29758 18.6138 4.88325C19.8017 6.46893 20.4449 8.40764 20.4443 10.4013V16.5068L22.7851 20.0788C22.9135 20.2746 22.9873 20.5021 22.9985 20.7372C23.0097 20.9722 22.958 21.206 22.8489 21.4135C22.7397 21.621 22.5773 21.7944 22.3788 21.9154C22.1804 22.0363 21.9534 22.1002 21.7221 22.1001H15.9274C15.7736 23.183 15.2414 24.1733 14.4282 24.8895C13.6151 25.6058 12.5756 26 11.5 26C10.4244 26 9.38488 25.6058 8.57176 24.8895C7.75865 24.1733 7.22642 23.183 7.07257 22.1001H1.27795C1.04662 22.1002 0.819621 22.0363 0.62117 21.9154C0.422719 21.7944 0.26026 21.621 0.151128 21.4135C0.0419947 21.206 -0.0097183 20.9722 0.001505 20.7372C0.0127283 20.5021 0.086467 20.2746 0.214854 20.0788L2.5557 16.5068V10.4013C2.5557 6.21059 5.34121 2.68016 9.13104 1.62467ZM9.69325 22.1001C9.82522 22.4805 10.0699 22.8099 10.3936 23.0429C10.7173 23.2759 11.1041 23.401 11.5006 23.401C11.8972 23.401 12.284 23.2759 12.6077 23.0429C12.9314 22.8099 13.1761 22.4805 13.308 22.1001H9.69325ZM11.5 3.90203C9.80559 3.90203 8.18058 4.58678 6.98245 5.80564C5.78432 7.02449 5.11122 8.67762 5.11122 10.4013V16.9007C5.11127 17.1574 5.03658 17.4085 4.89655 17.6221L3.66607 19.5004H19.3326L18.1022 17.6221C17.9626 17.4083 17.8883 17.1573 17.8888 16.9007V10.4013C17.8888 8.67762 17.2157 7.02449 16.0176 5.80564C14.8194 4.58678 13.1944 3.90203 11.5 3.90203Z" fill="#EB877C"/>
</svg>
