<svg width="20" height="20" viewBox="0 0 20 20" fill="none" xmlns="http://www.w3.org/2000/svg">
<path opacity="0.16" d="M6.99998 13.4979H13C13.7537 13.4977 14.4873 13.741 15.0918 14.1913C15.6226 14.5867 16.0285 15.1232 16.2656 15.7372C15.5027 16.5718 14.5818 17.2481 13.5527 17.7216C12.578 18.1699 11.5285 18.4293 10.4599 18.4862L10.001 18.4979H9.99998C8.77367 18.4991 7.56134 18.2341 6.44725 17.7216C5.41801 17.2481 4.49643 16.5721 3.73338 15.7372C3.97046 15.1231 4.37732 14.5867 4.90819 14.1913C5.43716 13.7972 6.065 13.5621 6.71873 13.5096L6.99998 13.4979Z" stroke="white"/>
<path d="M19 9.99791C19.0028 11.7847 18.4714 13.5315 17.474 15.0139C16.6514 16.2409 15.5391 17.2463 14.2356 17.9412C12.932 18.6361 11.4772 18.999 10 18.9979C8.52277 18.999 7.06804 18.6361 5.76444 17.9412C4.46085 17.2463 3.34858 16.2409 2.526 15.0139C1.74273 13.8463 1.2439 12.5115 1.06951 11.1164C0.895109 9.72124 1.05 8.30467 1.52175 6.9802C1.9935 5.65573 2.769 4.46021 3.78607 3.48947C4.80314 2.51873 6.0335 1.79978 7.37851 1.39025C8.72352 0.980724 10.1458 0.892009 11.5312 1.13122C12.9167 1.37043 14.2269 1.93091 15.3567 2.76773C16.4865 3.60455 17.4046 4.69444 18.0373 5.95002C18.67 7.20559 18.9997 8.59194 19 9.99791Z" stroke="white" stroke-width="2"/>
<path d="M3.98169 16.618L4.46021 16.7606L4.53442 16.5087C5.1132 16.9952 5.75584 17.4038 6.44653 17.7216C7.40924 18.1645 8.44524 18.4211 9.50024 18.4823V19.4843C8.30118 19.4221 7.1231 19.1337 6.02954 18.6307C4.93555 18.1275 3.949 17.4202 3.12134 16.5497L3.28442 16.41L3.98169 16.618ZM16.8782 16.5507C16.0506 17.4205 15.0645 18.1277 13.9709 18.6307C12.8774 19.1338 11.6993 19.422 10.5002 19.4843V18.4823C11.555 18.4211 12.5905 18.1643 13.553 17.7216C14.2432 17.404 14.8857 16.9957 15.4641 16.5096L15.5393 16.7616L16.0188 16.619L16.7161 16.411L16.8782 16.5507ZM6.50024 13.535C5.92592 13.6177 5.37809 13.8407 4.90845 14.1903C4.66324 14.3728 4.44575 14.5866 4.25806 14.8231L3.97974 14.4969L3.59985 14.8231L3.04712 15.2968L2.85864 15.2411C3.16933 14.509 3.6673 13.8683 4.30981 13.3895C4.95263 12.9106 5.70949 12.6163 6.50024 12.5282V13.535ZM13.5002 12.5292C14.2906 12.6175 15.0472 12.9108 15.6897 13.3895C16.3322 13.8683 16.8301 14.5093 17.1409 15.2411L16.9534 15.2968L16.4006 14.8231L16.0198 14.4979L15.7405 14.8231C15.1971 14.1395 14.4047 13.6646 13.5002 13.535V12.5292ZM12.5002 12.4979V13.4979H7.50024V12.4979H12.5002ZM8.58813 7.49792C8.66204 7.70659 8.78018 7.89896 8.9397 8.05847C9.09926 8.218 9.29152 8.33616 9.50024 8.41003V9.44617C9.02358 9.34886 8.58183 9.11462 8.23267 8.7655C7.8835 8.41634 7.64836 7.97461 7.55103 7.49792H8.58813ZM12.4485 7.49792C12.3512 7.97452 12.1169 8.41638 11.7678 8.7655C11.4187 9.11458 10.9768 9.34879 10.5002 9.44617V8.41003C10.7089 8.33613 10.9013 8.21795 11.0608 8.05847C11.2203 7.89894 11.3385 7.7066 11.4124 7.49792H12.4485ZM10.5002 4.54871C10.9769 4.64606 11.4187 4.88123 11.7678 5.23035C12.1169 5.57947 12.3512 6.02133 12.4485 6.49792H11.4124C11.3385 6.28925 11.2203 6.09691 11.0608 5.93738C10.9012 5.77782 10.709 5.65874 10.5002 5.58484V4.54871ZM9.50024 5.58484C9.2914 5.6587 9.09934 5.77777 8.9397 5.93738C8.78018 6.09689 8.66204 6.28926 8.58813 6.49792H7.55103C7.64836 6.02124 7.8835 5.57951 8.23267 5.23035C8.58188 4.88118 9.02351 4.64599 9.50024 4.54871V5.58484Z" stroke="white"/>
</svg>
